<svg id="Calque_2" data-name="Calque 2" xmlns="http://www.w3.org/2000/svg" viewBox="0 0 425.36 110.7"><defs><style>.cls-1{fill:#007a3c;}.cls-2{font-size:68.08px;fill:#1d1d1b;font-family:Rubik-Bold, Rubik;font-weight:700;letter-spacing:-0.05em;}</style></defs><title>logo</title><path class="cls-1" d="M452.23,420.78c-13.16,4.32-41.41,13.59-74.48,9.34A126.72,126.72,0,0,1,352,424.06a34.12,34.12,0,0,0,11.14,15.65c26.09,21,83.15,11.25,108.93,3.53a151.44,151.44,0,0,0,41.07-19.18,113.9,113.9,0,0,0,13.22-10.6c-4.14-6.16-10.57-13.27-19.49-13.89-7.13-.5-12.09,3.41-23.66,9.09A266.21,266.21,0,0,1,452.23,420.78Z" transform="translate(-101 -341.66)"/><text class="cls-2" transform="translate(0 57.87) scale(0.84 1)">supbartering</text></svg>