<svg id="Calque_1" data-name="Calque 1" xmlns="http://www.w3.org/2000/svg" viewBox="0 0 501 209.28"><defs><style>.cls-1{fill:#009c4e;}</style></defs><title>minilogo</title><path class="cls-1" d="M327,297c-37.81,17.11-119,53.84-214,37a285.14,285.14,0,0,1-74-24c3.84,15.33,12.15,40,32,62,75,83.12,238.93,44.57,313,14,65.77-27.15,109.93-68.35,118-76a372.59,372.59,0,0,0,38-42c-11.89-24.4-30.39-52.53-56-55-20.5-2-34.74,13.52-68,36C416,249,381.42,272.37,327,297Z" transform="translate(-39 -212.83)"/><path class="cls-1" d="M637,413" transform="translate(-39 -212.83)"/></svg>